<?xml version="1.0" encoding="UTF-8" standalone="no"?>
<!DOCTYPE svg PUBLIC "-//W3C//DTD SVG 1.1//EN" "http://www.w3.org/Graphics/SVG/1.1/DTD/svg11.dtd">
<svg width="100%" height="100%" viewBox="0 0 427 211" version="1.1" xmlns="http://www.w3.org/2000/svg" xmlns:xlink="http://www.w3.org/1999/xlink" xml:space="preserve" xmlns:serif="http://www.serif.com/" style="fill-rule:evenodd;clip-rule:evenodd;stroke-linejoin:round;stroke-miterlimit:2;">
    <g transform="matrix(1,0,0,1,-2600,0)">
        <g id="Export" transform="matrix(0.426826,0,0,0.210011,2600,0)">
            <rect x="0" y="0" width="1000" height="1000" style="fill:none;"/>
            <clipPath id="_clip1">
                <rect x="0" y="0" width="1000" height="1000"/>
            </clipPath>
            <g clip-path="url(#_clip1)">
                <g id="logo" transform="matrix(2.34287,0,0,4.76166,-671.437,-1880.83)">
                    <g transform="matrix(150,0,0,150,286.587,494.677)">
                        <path d="M0.379,-0.037C0.396,-0.083 0.404,-0.12 0.404,-0.148C0.404,-0.182 0.392,-0.204 0.369,-0.214C0.339,-0.225 0.312,-0.231 0.287,-0.231C0.274,-0.231 0.262,-0.229 0.25,-0.227C0.25,-0.219 0.25,-0.211 0.25,-0.203C0.25,-0.165 0.245,-0.125 0.235,-0.083C0.239,-0.084 0.244,-0.084 0.248,-0.084C0.299,-0.084 0.342,-0.068 0.379,-0.037ZM0.257,-0.51C0.242,-0.485 0.235,-0.451 0.235,-0.407C0.235,-0.4 0.235,-0.392 0.235,-0.384L0.243,-0.293C0.252,-0.295 0.265,-0.299 0.282,-0.307C0.3,-0.315 0.317,-0.325 0.334,-0.336C0.378,-0.366 0.4,-0.393 0.4,-0.419C0.4,-0.448 0.386,-0.47 0.358,-0.485C0.337,-0.497 0.309,-0.504 0.274,-0.508L0.257,-0.51ZM0.373,-0.294C0.452,-0.282 0.494,-0.256 0.5,-0.214L0.5,-0.208C0.5,-0.159 0.467,-0.072 0.4,0.052C0.337,0.013 0.27,-0.006 0.2,-0.006C0.136,-0.006 0.069,0.01 0,0.042C0.048,-0.02 0.097,-0.059 0.148,-0.075L0.129,-0.304C0.128,-0.313 0.127,-0.323 0.127,-0.334C0.127,-0.349 0.129,-0.364 0.131,-0.381C0.14,-0.438 0.165,-0.482 0.204,-0.512L0.175,-0.512L0.167,-0.511C0.153,-0.512 0.14,-0.513 0.127,-0.516C0.109,-0.52 0.093,-0.527 0.079,-0.536C0.04,-0.562 0.019,-0.604 0.015,-0.663L0.015,-0.665C0.029,-0.638 0.052,-0.618 0.083,-0.606C0.095,-0.601 0.109,-0.598 0.125,-0.597C0.135,-0.596 0.149,-0.595 0.167,-0.595C0.181,-0.595 0.199,-0.596 0.224,-0.596L0.252,-0.597L0.281,-0.598C0.326,-0.598 0.363,-0.593 0.393,-0.584C0.431,-0.574 0.456,-0.556 0.468,-0.532C0.476,-0.516 0.479,-0.499 0.479,-0.48C0.479,-0.478 0.479,-0.475 0.479,-0.472C0.478,-0.45 0.473,-0.43 0.463,-0.412C0.453,-0.392 0.438,-0.369 0.418,-0.344C0.402,-0.324 0.387,-0.308 0.373,-0.294Z" style="fill:rgb(249,171,38);fill-rule:nonzero;"/>
                    </g>
                    <g transform="matrix(150,0,0,150,363.327,494.677)">
                        <path d="M0.125,-0.117C0.125,-0.098 0.13,-0.082 0.142,-0.069C0.148,-0.062 0.154,-0.057 0.16,-0.054L0.087,-0L0.086,-0L0.086,-0L0.079,-0.004C0.076,-0.006 0.073,-0.008 0.071,-0.01C0.068,-0.013 0.064,-0.016 0.062,-0.019C0.054,-0.026 0.048,-0.034 0.043,-0.042C0.038,-0.053 0.035,-0.065 0.035,-0.077L0.035,-0.305C0.035,-0.324 0.029,-0.34 0.018,-0.353C0.012,-0.36 0.006,-0.365 0,-0.368L0.072,-0.422L0.073,-0.422L0.081,-0.417C0.083,-0.416 0.086,-0.414 0.089,-0.412C0.092,-0.409 0.095,-0.406 0.098,-0.404C0.106,-0.396 0.112,-0.388 0.116,-0.38C0.122,-0.369 0.125,-0.357 0.125,-0.345L0.125,-0.117ZM0.076,-0.54C0.079,-0.535 0.082,-0.531 0.085,-0.527C0.09,-0.522 0.096,-0.518 0.101,-0.514C0.111,-0.508 0.123,-0.505 0.135,-0.505C0.142,-0.505 0.149,-0.506 0.157,-0.508C0.146,-0.486 0.132,-0.469 0.114,-0.457C0.1,-0.448 0.087,-0.443 0.074,-0.443C0.05,-0.443 0.027,-0.457 0.003,-0.485L0.076,-0.54Z" style="fill:rgb(249,171,38);fill-rule:nonzero;"/>
                    </g>
                    <g transform="matrix(150,0,0,150,389.823,494.677)">
                        <path d="M0.103,-0.366C0.088,-0.341 0.081,-0.308 0.081,-0.268C0.081,-0.25 0.083,-0.231 0.085,-0.21L0.169,-0.274L0.103,-0.366ZM0.092,-0.174C0.095,-0.162 0.099,-0.152 0.104,-0.141C0.112,-0.127 0.122,-0.115 0.132,-0.104C0.155,-0.083 0.185,-0.073 0.22,-0.073C0.231,-0.073 0.243,-0.074 0.255,-0.076L0.155,-0C0.151,-0 0.147,-0.001 0.142,-0.001C0.136,-0.002 0.13,-0.004 0.125,-0.005C0.109,-0.01 0.095,-0.017 0.082,-0.026C0.044,-0.052 0.021,-0.094 0.011,-0.153C0.007,-0.171 0.006,-0.189 0.006,-0.208C0.006,-0.229 0.008,-0.252 0.013,-0.274C0.03,-0.359 0.077,-0.411 0.154,-0.432L0.251,-0.296L0.249,-0.294L0.092,-0.174Z" style="fill:rgb(249,171,38);fill-rule:nonzero;"/>
                    </g>
                    <g transform="matrix(150,0,0,150,427.672,494.677)">
                        <path d="M0.035,-0.478C0.035,-0.488 0.033,-0.498 0.03,-0.507C0.027,-0.514 0.023,-0.52 0.018,-0.526C0.012,-0.533 0.006,-0.538 0,-0.541L0.073,-0.595L0.073,-0.595L0.074,-0.594L0.081,-0.59C0.083,-0.589 0.086,-0.587 0.089,-0.584C0.092,-0.582 0.095,-0.58 0.098,-0.577C0.106,-0.569 0.112,-0.561 0.116,-0.553C0.122,-0.542 0.125,-0.53 0.125,-0.518L0.125,-0.116C0.125,-0.088 0.136,-0.067 0.159,-0.054L0.087,-0L0.086,-0L0.086,-0C0.052,-0.026 0.035,-0.058 0.035,-0.097L0.035,-0.478Z" style="fill:rgb(249,171,38);fill-rule:nonzero;"/>
                    </g>
                    <g transform="matrix(150,0,0,150,454.095,494.677)">
                        <path d="M0.103,-0.366C0.088,-0.341 0.081,-0.308 0.081,-0.268C0.081,-0.25 0.083,-0.231 0.085,-0.21L0.169,-0.274L0.103,-0.366ZM0.092,-0.174C0.095,-0.162 0.099,-0.152 0.104,-0.141C0.112,-0.127 0.122,-0.115 0.132,-0.104C0.155,-0.083 0.185,-0.073 0.22,-0.073C0.231,-0.073 0.243,-0.074 0.255,-0.076L0.155,-0C0.151,-0 0.147,-0.001 0.142,-0.001C0.136,-0.002 0.13,-0.004 0.125,-0.005C0.109,-0.01 0.095,-0.017 0.082,-0.026C0.044,-0.052 0.021,-0.094 0.011,-0.153C0.007,-0.171 0.006,-0.189 0.006,-0.208C0.006,-0.229 0.008,-0.252 0.013,-0.274C0.03,-0.359 0.077,-0.411 0.154,-0.432L0.251,-0.296L0.249,-0.294L0.092,-0.174Z" style="fill:rgb(249,171,38);fill-rule:nonzero;"/>
                    </g>
                    <g transform="matrix(150,0,0,150,493.408,494.677)">
                        <path d="M0.036,-0.377L0,-0.377L0.02,-0.423L0.036,-0.423L0.035,-0.488C0.035,-0.51 0.041,-0.529 0.051,-0.546C0.064,-0.568 0.085,-0.584 0.113,-0.595L0.193,-0.542C0.2,-0.548 0.205,-0.555 0.208,-0.563C0.21,-0.568 0.211,-0.574 0.211,-0.581C0.211,-0.586 0.21,-0.591 0.208,-0.597C0.226,-0.589 0.239,-0.577 0.25,-0.563C0.257,-0.553 0.26,-0.543 0.26,-0.532C0.26,-0.53 0.26,-0.528 0.26,-0.525C0.257,-0.509 0.246,-0.493 0.227,-0.477L0.226,-0.478L0.152,-0.527C0.145,-0.522 0.139,-0.516 0.133,-0.507C0.128,-0.498 0.125,-0.49 0.125,-0.481L0.125,-0.423L0.17,-0.423L0.15,-0.377L0.125,-0.377L0.125,-0.117C0.125,-0.098 0.131,-0.082 0.143,-0.069C0.149,-0.062 0.155,-0.057 0.161,-0.054L0.088,-0L0.087,-0L0.087,-0L0.08,-0.004C0.077,-0.006 0.074,-0.008 0.072,-0.01C0.068,-0.013 0.065,-0.016 0.062,-0.019C0.055,-0.026 0.049,-0.034 0.044,-0.042C0.038,-0.053 0.036,-0.065 0.036,-0.077L0.036,-0.377Z" style="fill:rgb(249,171,38);fill-rule:nonzero;"/>
                    </g>
                    <g transform="matrix(150,0,0,150,520.71,494.677)">
                        <path d="M0.103,-0.366C0.088,-0.341 0.081,-0.308 0.081,-0.268C0.081,-0.25 0.083,-0.231 0.085,-0.21L0.169,-0.274L0.103,-0.366ZM0.092,-0.174C0.095,-0.162 0.099,-0.152 0.104,-0.141C0.112,-0.127 0.122,-0.115 0.132,-0.104C0.155,-0.083 0.185,-0.073 0.22,-0.073C0.231,-0.073 0.243,-0.074 0.255,-0.076L0.155,-0C0.151,-0 0.147,-0.001 0.142,-0.001C0.136,-0.002 0.13,-0.004 0.125,-0.005C0.109,-0.01 0.095,-0.017 0.082,-0.026C0.044,-0.052 0.021,-0.094 0.011,-0.153C0.007,-0.171 0.006,-0.189 0.006,-0.208C0.006,-0.229 0.008,-0.252 0.013,-0.274C0.03,-0.359 0.077,-0.411 0.154,-0.432L0.251,-0.296L0.249,-0.294L0.092,-0.174Z" style="fill:rgb(249,171,38);fill-rule:nonzero;"/>
                    </g>
                    <g transform="matrix(150,0,0,150,558.559,494.677)">
                        <path d="M0.035,-0.478C0.035,-0.488 0.033,-0.498 0.03,-0.507C0.027,-0.514 0.023,-0.52 0.018,-0.526C0.012,-0.533 0.006,-0.538 0,-0.541L0.073,-0.595L0.073,-0.595L0.074,-0.594L0.081,-0.59C0.083,-0.589 0.086,-0.587 0.089,-0.584C0.092,-0.582 0.095,-0.58 0.098,-0.577C0.106,-0.569 0.112,-0.561 0.116,-0.553C0.122,-0.542 0.125,-0.53 0.125,-0.518L0.125,-0.116C0.125,-0.088 0.136,-0.067 0.159,-0.054L0.087,-0L0.086,-0L0.086,-0C0.052,-0.026 0.035,-0.058 0.035,-0.097L0.035,-0.478Z" style="fill:rgb(249,171,38);fill-rule:nonzero;"/>
                    </g>
                    <g transform="matrix(150,0,0,150,587.179,494.677)">
                        <path d="M0.165,-0.318C0.165,-0.332 0.156,-0.344 0.137,-0.355C0.105,-0.332 0.09,-0.307 0.09,-0.281L0.09,-0.105C0.09,-0.091 0.099,-0.079 0.118,-0.068L0.165,-0.103L0.165,-0.318ZM0.216,-0C0.205,-0.007 0.195,-0.016 0.187,-0.029C0.179,-0.041 0.173,-0.053 0.169,-0.066L0.079,-0C0.035,-0.017 0.01,-0.046 0.003,-0.085C0.002,-0.092 0.001,-0.099 0,-0.108L0,-0.275C0,-0.292 0.01,-0.311 0.028,-0.33C0.042,-0.346 0.062,-0.361 0.088,-0.377C0.114,-0.394 0.139,-0.408 0.165,-0.419L0.165,-0.478C0.165,-0.488 0.163,-0.498 0.16,-0.507C0.157,-0.514 0.153,-0.52 0.147,-0.526C0.142,-0.533 0.136,-0.538 0.13,-0.541L0.203,-0.595L0.203,-0.595L0.204,-0.594L0.21,-0.59C0.213,-0.589 0.216,-0.587 0.219,-0.584C0.222,-0.582 0.225,-0.58 0.228,-0.577C0.236,-0.569 0.242,-0.561 0.246,-0.553C0.252,-0.542 0.254,-0.53 0.254,-0.518L0.254,-0.115C0.254,-0.096 0.26,-0.081 0.271,-0.068C0.276,-0.063 0.282,-0.058 0.289,-0.054L0.217,-0L0.216,-0Z" style="fill:rgb(249,171,38);fill-rule:nonzero;"/>
                    </g>
                    <g transform="matrix(150,0,0,150,633.084,494.677)">
                        <path d="M0.103,-0.366C0.088,-0.341 0.081,-0.308 0.081,-0.268C0.081,-0.25 0.083,-0.231 0.085,-0.21L0.169,-0.274L0.103,-0.366ZM0.092,-0.174C0.095,-0.162 0.099,-0.152 0.104,-0.141C0.112,-0.127 0.122,-0.115 0.132,-0.104C0.155,-0.083 0.185,-0.073 0.22,-0.073C0.231,-0.073 0.243,-0.074 0.255,-0.076L0.155,-0C0.151,-0 0.147,-0.001 0.142,-0.001C0.136,-0.002 0.13,-0.004 0.125,-0.005C0.109,-0.01 0.095,-0.017 0.082,-0.026C0.044,-0.052 0.021,-0.094 0.011,-0.153C0.007,-0.171 0.006,-0.189 0.006,-0.208C0.006,-0.229 0.008,-0.252 0.013,-0.274C0.03,-0.359 0.077,-0.411 0.154,-0.432L0.251,-0.296L0.249,-0.294L0.092,-0.174Z" style="fill:rgb(249,171,38);fill-rule:nonzero;"/>
                    </g>
                    <g transform="matrix(150,0,0,150,672.397,494.677)">
                        <path d="M0.21,-0.423C0.239,-0.412 0.26,-0.396 0.273,-0.374L0.2,-0.319C0.199,-0.333 0.19,-0.345 0.172,-0.355L0.125,-0.32L0.125,-0.118C0.125,-0.108 0.126,-0.098 0.13,-0.089C0.133,-0.082 0.137,-0.075 0.142,-0.069C0.148,-0.062 0.154,-0.057 0.16,-0.054L0.087,-0L0.086,-0L0.086,-0L0.079,-0.004C0.076,-0.006 0.073,-0.008 0.071,-0.01C0.068,-0.013 0.064,-0.016 0.061,-0.019C0.054,-0.026 0.048,-0.034 0.043,-0.042C0.038,-0.053 0.035,-0.065 0.035,-0.077L0.035,-0.305C0.035,-0.324 0.029,-0.34 0.018,-0.353C0.012,-0.36 0.006,-0.365 0,-0.368L0.072,-0.422L0.073,-0.422L0.074,-0.421L0.079,-0.418C0.081,-0.417 0.084,-0.415 0.086,-0.414C0.089,-0.411 0.092,-0.409 0.095,-0.407C0.102,-0.401 0.107,-0.394 0.112,-0.387C0.118,-0.378 0.121,-0.369 0.123,-0.359L0.21,-0.423Z" style="fill:rgb(249,171,38);fill-rule:nonzero;"/>
                    </g>
                    <g transform="matrix(150,0,0,150,367.219,594.677)">
                        <path d="M0.327,-0.068L0.326,-0.068C0.205,0.024 0.144,0.069 0.143,0.069C0.113,0.051 0.088,0.029 0.067,0.003C0.036,-0.034 0.018,-0.083 0.011,-0.143C0.01,-0.153 0.01,-0.162 0.01,-0.171C0.01,-0.232 0.03,-0.293 0.072,-0.356L0.08,-0.368L0.088,-0.379C0.096,-0.389 0.102,-0.398 0.105,-0.404C0.116,-0.421 0.122,-0.438 0.122,-0.452L0.122,-0.457C0.121,-0.467 0.116,-0.476 0.106,-0.484C0.097,-0.491 0.088,-0.495 0.078,-0.495L0.077,-0.495C0.063,-0.494 0.052,-0.489 0.044,-0.48C0.039,-0.473 0.037,-0.466 0.037,-0.458C0.037,-0.454 0.038,-0.448 0.04,-0.443L0.039,-0.443L0.039,-0.443C0.038,-0.444 0.038,-0.445 0.037,-0.445C0.035,-0.447 0.033,-0.45 0.031,-0.452C0.029,-0.455 0.026,-0.459 0.024,-0.462C0.022,-0.466 0.02,-0.47 0.019,-0.474C0.015,-0.485 0.014,-0.494 0.014,-0.504C0.014,-0.517 0.017,-0.528 0.023,-0.539C0.034,-0.556 0.052,-0.568 0.079,-0.573C0.085,-0.574 0.09,-0.574 0.095,-0.574C0.108,-0.574 0.12,-0.571 0.13,-0.565C0.149,-0.554 0.177,-0.533 0.214,-0.503L0.192,-0.476C0.177,-0.457 0.162,-0.43 0.146,-0.395C0.127,-0.353 0.115,-0.317 0.112,-0.286C0.11,-0.271 0.109,-0.257 0.109,-0.243C0.109,-0.209 0.115,-0.176 0.125,-0.146C0.142,-0.097 0.172,-0.057 0.214,-0.025L0.326,-0.108L0.326,-0.478C0.326,-0.497 0.32,-0.513 0.308,-0.526C0.302,-0.533 0.296,-0.538 0.291,-0.541L0.363,-0.595L0.364,-0.595L0.364,-0.594L0.371,-0.59C0.374,-0.589 0.376,-0.587 0.379,-0.584C0.383,-0.582 0.386,-0.579 0.389,-0.577C0.396,-0.569 0.403,-0.561 0.407,-0.552C0.412,-0.542 0.415,-0.53 0.415,-0.518L0.416,-0.07C0.416,-0.042 0.427,-0.021 0.451,-0.007L0.378,0.047L0.378,0.046L0.377,0.046C0.344,0.021 0.327,-0.011 0.327,-0.05L0.327,-0.068Z" style="fill:rgb(249,171,38);fill-rule:nonzero;"/>
                    </g>
                    <g transform="matrix(150,0,0,150,435.903,594.677)">
                        <path d="M0.124,-0.117C0.124,-0.089 0.136,-0.068 0.159,-0.054L0.087,-0L0.086,-0L0.086,-0C0.052,-0.026 0.035,-0.058 0.035,-0.097L0.035,-0.305C0.035,-0.324 0.029,-0.34 0.018,-0.353C0.012,-0.36 0.006,-0.365 0,-0.368L0.072,-0.422L0.073,-0.422L0.074,-0.421L0.079,-0.418C0.081,-0.417 0.084,-0.415 0.086,-0.414C0.089,-0.411 0.092,-0.409 0.095,-0.407C0.102,-0.401 0.107,-0.394 0.112,-0.387C0.118,-0.378 0.122,-0.369 0.124,-0.359L0.21,-0.423C0.239,-0.412 0.26,-0.396 0.273,-0.375C0.283,-0.358 0.289,-0.339 0.289,-0.317L0.289,-0.117C0.289,-0.089 0.3,-0.068 0.324,-0.054L0.251,-0L0.251,-0L0.25,-0C0.217,-0.026 0.2,-0.058 0.2,-0.097L0.2,-0.318C0.2,-0.332 0.19,-0.344 0.172,-0.355L0.124,-0.32L0.124,-0.117Z" style="fill:rgb(249,171,38);fill-rule:nonzero;"/>
                    </g>
                    <g transform="matrix(150,0,0,150,485.543,594.677)">
                        <path d="M0.125,-0.117C0.125,-0.098 0.13,-0.082 0.142,-0.069C0.148,-0.062 0.154,-0.057 0.16,-0.054L0.087,-0L0.086,-0L0.086,-0L0.079,-0.004C0.076,-0.006 0.073,-0.008 0.071,-0.01C0.068,-0.013 0.064,-0.016 0.062,-0.019C0.054,-0.026 0.048,-0.034 0.043,-0.042C0.038,-0.053 0.035,-0.065 0.035,-0.077L0.035,-0.305C0.035,-0.324 0.029,-0.34 0.018,-0.353C0.012,-0.36 0.006,-0.365 0,-0.368L0.072,-0.422L0.073,-0.422L0.081,-0.417C0.083,-0.416 0.086,-0.414 0.089,-0.412C0.092,-0.409 0.095,-0.406 0.098,-0.404C0.106,-0.396 0.112,-0.388 0.116,-0.38C0.122,-0.369 0.125,-0.357 0.125,-0.345L0.125,-0.117ZM0.076,-0.54C0.079,-0.535 0.082,-0.531 0.085,-0.527C0.09,-0.522 0.096,-0.518 0.101,-0.514C0.111,-0.508 0.123,-0.505 0.135,-0.505C0.142,-0.505 0.149,-0.506 0.157,-0.508C0.146,-0.486 0.132,-0.469 0.114,-0.457C0.1,-0.448 0.087,-0.443 0.074,-0.443C0.05,-0.443 0.027,-0.457 0.003,-0.485L0.076,-0.54Z" style="fill:rgb(249,171,38);fill-rule:nonzero;"/>
                    </g>
                    <g transform="matrix(150,0,0,150,510.575,594.677)">
                        <path d="M0.215,-0.337C0.204,-0.34 0.193,-0.346 0.183,-0.354L0.125,-0.311L0.125,-0.271L0.215,-0.337ZM0.035,-0.478C0.035,-0.488 0.033,-0.498 0.03,-0.507C0.027,-0.514 0.023,-0.52 0.018,-0.526C0.012,-0.533 0.006,-0.538 0,-0.541L0.073,-0.595L0.073,-0.595L0.074,-0.594L0.081,-0.59C0.083,-0.589 0.086,-0.587 0.089,-0.584C0.092,-0.582 0.095,-0.58 0.098,-0.577C0.106,-0.569 0.112,-0.561 0.116,-0.553C0.122,-0.542 0.125,-0.53 0.125,-0.518L0.125,-0.351L0.232,-0.431L0.232,-0.43L0.233,-0.431C0.236,-0.427 0.239,-0.422 0.242,-0.418C0.247,-0.413 0.252,-0.409 0.258,-0.406C0.268,-0.4 0.28,-0.396 0.292,-0.396C0.299,-0.396 0.306,-0.397 0.313,-0.399C0.308,-0.387 0.299,-0.376 0.289,-0.364C0.279,-0.354 0.27,-0.347 0.26,-0.342C0.25,-0.337 0.241,-0.335 0.231,-0.335C0.228,-0.335 0.225,-0.335 0.222,-0.335C0.248,-0.324 0.267,-0.308 0.28,-0.288C0.29,-0.271 0.294,-0.253 0.294,-0.232L0.294,-0.117C0.294,-0.089 0.306,-0.068 0.33,-0.054L0.257,-0L0.257,-0L0.256,-0C0.223,-0.025 0.207,-0.056 0.206,-0.094L0.206,-0.233C0.206,-0.247 0.196,-0.259 0.177,-0.27L0.125,-0.231L0.125,-0.117C0.125,-0.089 0.136,-0.068 0.16,-0.054L0.087,-0L0.086,-0L0.086,-0C0.052,-0.026 0.035,-0.058 0.035,-0.097L0.035,-0.478Z" style="fill:rgb(249,171,38);fill-rule:nonzero;"/>
                    </g>
                    <g transform="matrix(150,0,0,150,564.756,594.677)">
                        <path d="M0.165,-0.318C0.165,-0.332 0.156,-0.344 0.137,-0.355C0.105,-0.332 0.09,-0.307 0.09,-0.281L0.09,-0.105C0.09,-0.091 0.099,-0.079 0.118,-0.068L0.165,-0.103L0.165,-0.318ZM0.253,-0.108C0.253,-0.1 0.255,-0.093 0.259,-0.085C0.262,-0.08 0.266,-0.074 0.271,-0.068C0.277,-0.062 0.283,-0.057 0.289,-0.054L0.216,-0C0.204,-0.007 0.194,-0.017 0.186,-0.031C0.179,-0.042 0.174,-0.054 0.17,-0.067L0.079,-0C0.035,-0.017 0.01,-0.046 0.003,-0.085C0.002,-0.092 0.001,-0.099 0,-0.108L0,-0.275C0,-0.292 0.01,-0.311 0.028,-0.33C0.042,-0.346 0.062,-0.361 0.088,-0.377C0.117,-0.396 0.146,-0.411 0.175,-0.423C0.204,-0.412 0.225,-0.396 0.238,-0.375C0.248,-0.358 0.253,-0.339 0.253,-0.317L0.253,-0.108Z" style="fill:rgb(249,171,38);fill-rule:nonzero;"/>
                    </g>
                    <g transform="matrix(150,0,0,150,607.732,594.677)">
                        <path d="M0.125,-0.377L0.125,-0.117C0.125,-0.098 0.131,-0.082 0.143,-0.069C0.149,-0.062 0.155,-0.057 0.161,-0.054L0.088,-0L0.088,-0L0.087,-0L0.08,-0.004C0.077,-0.006 0.075,-0.008 0.072,-0.01C0.069,-0.013 0.065,-0.016 0.063,-0.019C0.055,-0.026 0.049,-0.034 0.044,-0.042C0.039,-0.053 0.036,-0.065 0.036,-0.077L0.036,-0.377L0,-0.377L0.02,-0.423L0.037,-0.423C0.037,-0.444 0.035,-0.459 0.031,-0.468C0.028,-0.475 0.024,-0.481 0.019,-0.487C0.013,-0.494 0.007,-0.499 0.001,-0.502L0.074,-0.556L0.074,-0.556L0.075,-0.555L0.082,-0.551C0.084,-0.55 0.087,-0.548 0.09,-0.545C0.093,-0.543 0.096,-0.541 0.1,-0.538C0.107,-0.53 0.113,-0.522 0.117,-0.514C0.123,-0.503 0.125,-0.491 0.125,-0.479L0.125,-0.423L0.167,-0.423L0.147,-0.377L0.125,-0.377Z" style="fill:rgb(249,171,38);fill-rule:nonzero;"/>
                    </g>
                </g>
            </g>
        </g>
    </g>
</svg>
