<?xml version="1.0" encoding="UTF-8" standalone="no"?>
<!DOCTYPE svg PUBLIC "-//W3C//DTD SVG 1.1//EN" "http://www.w3.org/Graphics/SVG/1.1/DTD/svg11.dtd">
<svg width="100%" height="100%" viewBox="0 0 600 700" version="1.1" xmlns="http://www.w3.org/2000/svg" xmlns:xlink="http://www.w3.org/1999/xlink" xml:space="preserve" xmlns:serif="http://www.serif.com/" style="fill-rule:evenodd;clip-rule:evenodd;">
    <path d="M8,8L8,400C8,560.186 139.814,692 300,692C460.186,692 592,560.186 592,400L592,8L8,8Z" style="fill:rgb(249,171,38);fill-rule:nonzero;stroke:black;stroke-width:1px;"/>
    <g id="a" transform="matrix(1,0,0,1,-6.3,350)">
        <g>
            <rect x="114.1" y="-202.2" width="114.4" height="187" style="fill:rgb(218,18,26);fill-rule:nonzero;stroke:black;stroke-width:6px;stroke-linejoin:round;"/>
            <g>
                <path d="M106.6,-188.3L113.9,-179.76C152.9,-189.96 190.87,-189.27 228.6,-179.76L234.22,-188.3" style="fill:rgb(218,18,26);fill-rule:nonzero;stroke:black;stroke-width:5px;stroke-linejoin:round;"/>
                <path d="M106,-226.6L122.97,-230.9L122.97,-214.7L141.31,-218.66L141.31,-237.11L159.65,-239.81L159.65,-219.99L180.75,-219.99L180.75,-239.81L199.09,-237.11L199.09,-218.66L217.43,-214.21L217.43,-231.97L234.53,-226.37L234.83,-187.07C201.73,-200.17 140.63,-200.87 106.83,-187.07L106,-226.6Z" style="fill:rgb(218,18,26);fill-rule:nonzero;stroke:black;stroke-width:5px;stroke-linejoin:round;"/>
                <path d="M115.5,-113.6C149.5,-119.33 189.5,-120.6 228.5,-113.6C233.2,-113.1 233.2,-120.79 228.4,-121.79C190.57,-129.11 148.8,-128.88 115.2,-121.79C109.25,-120.59 109.25,-113.4 115.45,-113.6L115.5,-113.6Z" style="fill:rgb(218,18,26);fill-rule:nonzero;stroke:black;stroke-width:5px;stroke-linejoin:round;"/>
            </g>
        </g>
        <g id="b">
            <g id="c">
                <path d="M129,-148.5L138.4,-150.07L138.2,-165.77C136.23,-169.86 130.75,-169.1 129,-165.17L129,-148.5Z" style="fill-rule:nonzero;"/>
                <path d="M154,-152L163.5,-152.79L163.3,-168.79C161.45,-172.88 156.45,-172.53 154.1,-168.3L154,-152Z" style="fill-rule:nonzero;"/>
            </g>
            <g id="c1" serif:id="c" transform="matrix(-1,0,0,1,342.7,0)">
                <path d="M129,-148.5L138.4,-150.07L138.2,-165.77C136.23,-169.86 130.75,-169.1 129,-165.17L129,-148.5Z" style="fill-rule:nonzero;"/>
                <path d="M154,-152L163.5,-152.79L163.3,-168.79C161.45,-172.88 156.45,-172.53 154.1,-168.3L154,-152Z" style="fill-rule:nonzero;"/>
            </g>
        </g>
        <g id="b1" serif:id="b" transform="matrix(1,0,0,1,0,66.92)">
            <g id="c2" serif:id="c">
                <path d="M129,-148.5L138.4,-150.07L138.2,-165.77C136.23,-169.86 130.75,-169.1 129,-165.17L129,-148.5Z" style="fill-rule:nonzero;"/>
                <path d="M154,-152L163.5,-152.79L163.3,-168.79C161.45,-172.88 156.45,-172.53 154.1,-168.3L154,-152Z" style="fill-rule:nonzero;"/>
            </g>
            <g id="c3" serif:id="c" transform="matrix(-1,0,0,1,342.7,0)">
                <path d="M129,-148.5L138.4,-150.07L138.2,-165.77C136.23,-169.86 130.75,-169.1 129,-165.17L129,-148.5Z" style="fill-rule:nonzero;"/>
                <path d="M154,-152L163.5,-152.79L163.3,-168.79C161.45,-172.88 156.45,-172.53 154.1,-168.3L154,-152Z" style="fill-rule:nonzero;"/>
            </g>
        </g>
    </g>
    <g id="a1" serif:id="a" transform="matrix(-1,0,0,1,606.3,350)">
        <g>
            <rect x="114.1" y="-202.2" width="114.4" height="187" style="fill:rgb(218,18,26);fill-rule:nonzero;stroke:black;stroke-width:6px;stroke-linejoin:round;"/>
            <g>
                <path d="M106.6,-188.3L113.9,-179.76C152.9,-189.96 190.87,-189.27 228.6,-179.76L234.22,-188.3" style="fill:rgb(218,18,26);fill-rule:nonzero;stroke:black;stroke-width:5px;stroke-linejoin:round;"/>
                <path d="M106,-226.6L122.97,-230.9L122.97,-214.7L141.31,-218.66L141.31,-237.11L159.65,-239.81L159.65,-219.99L180.75,-219.99L180.75,-239.81L199.09,-237.11L199.09,-218.66L217.43,-214.21L217.43,-231.97L234.53,-226.37L234.83,-187.07C201.73,-200.17 140.63,-200.87 106.83,-187.07L106,-226.6Z" style="fill:rgb(218,18,26);fill-rule:nonzero;stroke:black;stroke-width:5px;stroke-linejoin:round;"/>
                <path d="M115.5,-113.6C149.5,-119.33 189.5,-120.6 228.5,-113.6C233.2,-113.1 233.2,-120.79 228.4,-121.79C190.57,-129.11 148.8,-128.88 115.2,-121.79C109.25,-120.59 109.25,-113.4 115.45,-113.6L115.5,-113.6Z" style="fill:rgb(218,18,26);fill-rule:nonzero;stroke:black;stroke-width:5px;stroke-linejoin:round;"/>
            </g>
        </g>
        <g id="b2" serif:id="b">
            <g id="c4" serif:id="c">
                <path d="M129,-148.5L138.4,-150.07L138.2,-165.77C136.23,-169.86 130.75,-169.1 129,-165.17L129,-148.5Z" style="fill-rule:nonzero;"/>
                <path d="M154,-152L163.5,-152.79L163.3,-168.79C161.45,-172.88 156.45,-172.53 154.1,-168.3L154,-152Z" style="fill-rule:nonzero;"/>
            </g>
            <g id="c5" serif:id="c" transform="matrix(-1,0,0,1,342.7,0)">
                <path d="M129,-148.5L138.4,-150.07L138.2,-165.77C136.23,-169.86 130.75,-169.1 129,-165.17L129,-148.5Z" style="fill-rule:nonzero;"/>
                <path d="M154,-152L163.5,-152.79L163.3,-168.79C161.45,-172.88 156.45,-172.53 154.1,-168.3L154,-152Z" style="fill-rule:nonzero;"/>
            </g>
        </g>
        <g id="b3" serif:id="b" transform="matrix(1,0,0,1,0,66.92)">
            <g id="c6" serif:id="c">
                <path d="M129,-148.5L138.4,-150.07L138.2,-165.77C136.23,-169.86 130.75,-169.1 129,-165.17L129,-148.5Z" style="fill-rule:nonzero;"/>
                <path d="M154,-152L163.5,-152.79L163.3,-168.79C161.45,-172.88 156.45,-172.53 154.1,-168.3L154,-152Z" style="fill-rule:nonzero;"/>
            </g>
            <g id="c7" serif:id="c" transform="matrix(-1,0,0,1,342.7,0)">
                <path d="M129,-148.5L138.4,-150.07L138.2,-165.77C136.23,-169.86 130.75,-169.1 129,-165.17L129,-148.5Z" style="fill-rule:nonzero;"/>
                <path d="M154,-152L163.5,-152.79L163.3,-168.79C161.45,-172.88 156.45,-172.53 154.1,-168.3L154,-152Z" style="fill-rule:nonzero;"/>
            </g>
        </g>
    </g>
    <path d="M97.26,610C100.555,500.4 190.3,413.2 299.96,413.1C409.66,413.159 499.46,500.35 502.76,610L503.26,610C597.26,501 593.96,470.7 591.96,286.7L546.96,286.7L546.96,324.37L501.96,324.37L501.98,286.7L457.1,286.7L457.1,324.37L412.1,324.37L412.1,286.7L367.1,286.7L367.1,324.37L322.1,324.37L322.1,286.7L277.2,286.7L277.2,324.37L232.2,324.37L232.2,286.7L187.2,286.7L187.2,324.37L142.2,324.37L142.2,286.7L97.25,286.7L97.25,324.37L52.28,324.37L52.28,286.7L7.3,286.7C10.8,446.7 -0.85,512 96.7,610" style="fill:rgb(218,18,26);fill-rule:nonzero;stroke:black;stroke-width:6px;"/>
    <path d="M12,365L589,365M11,340L589,340" style="fill:none;fill-rule:nonzero;stroke:black;stroke-width:6px;"/>
    <g transform="matrix(1,0,0,1,-0.6,0)">
        <clipPath id="_clip1">
            <path d="M85,595C116,340 466,326 520,590C582,639 919,183 301,280C-275,182 16,629 85,595"/>
        </clipPath>
        <g clip-path="url(#_clip1)">
            <path d="M47.6,549L552.6,549M40.6,533L558.6,533M33.6,519L566.6,519M27.6,505L572.6,505M23.6,491L576.6,491M17.6,477L580.6,477M15.6,461L584.6,461M15.6,447L590.6,447M13.6,433L590.6,433M12.6,417L590.6,417M11.6,405L590.6,405M12.6,391L590.6,391M11.6,379L590.6,379" style="fill:rgb(15,71,175);fill-rule:nonzero;stroke:black;stroke-width:3.7px;"/>
        </g>
    </g>
    <g>
        <g>
            <path d="M85.1,580.5C100.94,451.5 202.1,399 300.1,398C398.1,397.05 488.1,450.1 515.1,580.5" style="fill:none;fill-rule:nonzero;stroke:rgb(218,18,26);stroke-width:18px;"/>
            <path d="M299.5,368L299.5,382.7" style="fill:none;fill-rule:nonzero;stroke:rgb(218,18,26);stroke-width:4px;"/>
        </g>
        <path d="M300,368L300,377" style="fill:none;fill-rule:nonzero;stroke:black;stroke-width:3.8px;"/>
    </g>
    <g id="e">
        <path id="ao" d="M256,377L256,396.11" style="fill:none;fill-rule:nonzero;stroke:rgb(218,18,26);stroke-width:4px;"/>
        <path id="w" d="M80,386.7L80,431.7L100,431.7L100,386.7C97.7,377.8 82.7,378 80,386.7Z" style="fill:rgb(218,18,26);fill-rule:nonzero;stroke:black;stroke-width:5px;"/>
        <g>
            <path id="n" d="M213,377L213,407.41M124,377.01L123.8,474.11M36,377.01L36,479.31M81,445.01L81,546.91M168,377.01L168,436.01" style="fill-rule:nonzero;stroke:rgb(218,18,26);stroke-width:4px;"/>
        </g>
        <path id="k" d="M213,368L213,377M124,419L124,431M124,449L124,460.4M124,393L124,403M124,367L124,377M81,435L81,444.469M81,520.969L81,530.969M81,492.969L81,502.969M81,462.969L81,475.469M36,448.969L36,458.969M36,418.969L36,431.169M36,478.969L36,489.969M36,392.589L36,402.979M36,366.979L36,376.979M168,404.979L168,414.979M168,380.979L168,389.079M213,392.979L213,402.979M256,380.979L256,389.779" style="fill:none;fill-rule:nonzero;stroke:black;stroke-width:4px;"/>
    </g>
    <path d="M8,8L8,400C8,560.186 139.814,692 300,692C460.186,692 592,560.186 592,400L592,8L8,8Z" style="fill:none;fill-rule:nonzero;stroke:black;stroke-width:8px;"/>
    <g transform="matrix(1,0,0,1,-52.88,30.25)">
        <path d="M246.7,423C237.7,473.7 248.6,508.9 263.5,548.2C281.96,596.7 316.8,631.7 353.8,654.6C376.1,640.6 398.69,618.4 416,594.88L418.59,591.8L418.37,591.6C426.9,579.6 433.99,567.32 438.88,555.7C457.59,511.3 465.66,473.5 461.08,423" style="fill-rule:nonzero;"/>
        <path d="M412.6,591.9C406.73,600.13 400.45,608.08 393.5,615.38C380.5,603.01 366.99,590.86 354.3,578.38L313.82,616.48C307.15,609.1 300.46,601.72 294.22,593.97C314.08,575.39 333.93,556.87 353.82,538.25C373.44,556.14 393.02,574.03 412.67,591.93M259.17,519.43C262.96,531.75 267.33,543.91 272.48,555.73C299.48,530.21 326.58,504.63 353.58,479.13C380.58,504.41 407.58,529.7 434.68,554.99C439.87,543.86 443.42,532.09 446.89,520.34L352.99,428.24L259.19,519.44M252.08,427.14C249.45,442.34 248.35,457.77 249.21,473.14L297.18,427.14L252.08,427.14ZM454.88,427.14L410.38,427.14L456.16,473.24C456.63,458.29 457.27,443.24 455.43,428.32L454.93,427.12" style="fill:white;fill-rule:nonzero;"/>
        <path d="M291.6,590.8L353.7,532.5L414.9,588.6C422.52,577.6 428.18,567.72 432.44,558.99L353.24,484.79L273.94,559.75C279.16,571.19 285.04,581.85 291.54,590.85L291.6,590.8ZM356.9,427.1L447.8,515.9C451.3,503.65 454.75,490.28 455.6,478.5L404.4,427.1M354,584.2L316.4,619.5C328.07,632 340.22,640.7 353.4,650.08C366.57,640.54 378.98,629.88 390.4,618.36L354,584.2ZM348.3,427.1L257.6,515C254.24,503 250.5,490.9 249.38,478.38L302.88,427.08" style="fill:rgb(218,18,26);fill-rule:nonzero;"/>
    </g>
    <path d="M81.8,594.4C93.62,482.8 187.8,398.1 300,398.1C411.6,398.24 505.3,482.05 517.8,592.9" style="fill:none;fill-rule:nonzero;stroke:black;stroke-width:6px;"/>
    <g id="e1" serif:id="e" transform="matrix(-1,0,0,1,600,0)">
        <path id="ao1" serif:id="ao" d="M256,377L256,396.11" style="fill:none;fill-rule:nonzero;stroke:rgb(218,18,26);stroke-width:4px;"/>
        <path id="w1" serif:id="w" d="M80,386.7L80,431.7L100,431.7L100,386.7C97.7,377.8 82.7,378 80,386.7Z" style="fill:rgb(218,18,26);fill-rule:nonzero;stroke:black;stroke-width:5px;"/>
        <g>
            <path id="n1" serif:id="n" d="M213,377L213,407.41M124,377.01L123.8,474.11M36,377.01L36,479.31M81,445.01L81,546.91M168,377.01L168,436.01" style="fill-rule:nonzero;stroke:rgb(218,18,26);stroke-width:4px;"/>
        </g>
        <path id="k1" serif:id="k" d="M213,368L213,377M124,419L124,431M124,449L124,460.4M124,393L124,403M124,367L124,377M81,435L81,444.469M81,520.969L81,530.969M81,492.969L81,502.969M81,462.969L81,475.469M36,448.969L36,458.969M36,418.969L36,431.169M36,478.969L36,489.969M36,392.589L36,402.979M36,366.979L36,376.979M168,404.979L168,414.979M168,380.979L168,389.079M213,392.979L213,402.979M256,380.979L256,389.779" style="fill:none;fill-rule:nonzero;stroke:black;stroke-width:4px;"/>
    </g>
</svg>
