<?xml version="1.0" encoding="UTF-8" standalone="no"?>
<!DOCTYPE svg PUBLIC "-//W3C//DTD SVG 1.1//EN" "http://www.w3.org/Graphics/SVG/1.1/DTD/svg11.dtd">
<svg width="100%" height="100%" viewBox="0 0 125 250" version="1.1" xmlns="http://www.w3.org/2000/svg" xmlns:xlink="http://www.w3.org/1999/xlink" xml:space="preserve" xmlns:serif="http://www.serif.com/" style="fill-rule:evenodd;clip-rule:evenodd;stroke-linejoin:round;stroke-miterlimit:2;">
    <g id="ArtBoard1" transform="matrix(0.306373,0,0,0.408497,0,0)">
        <rect x="0" y="0" width="408" height="612" style="fill:none;"/>
        <clipPath id="_clip1">
            <rect x="0" y="0" width="408" height="612"/>
        </clipPath>
        <g clip-path="url(#_clip1)">
            <g transform="matrix(3.264,0,0,2.448,-567.242,84.0188)">
                <g id="bg" transform="matrix(1.46252,0,0,0.841821,225.661,-7.22198)">
                    <path d="M50,42.052C50,1.076 30.851,-32.191 7.265,-32.191C-16.32,-32.191 -35.469,1.076 -35.469,42.052L-35.469,190.54C-35.469,231.516 -16.32,264.784 7.265,264.784C30.851,264.784 50,231.516 50,190.54L50,42.052Z" style="fill:rgb(248,239,221);"/>
                </g>
                <g id="turm" transform="matrix(0.445466,0,0,0.445466,199.89,13.427)">
                    <g id="bottom" transform="matrix(2.24484,0,0,2.24484,-58.596,-107.187)">
                        <path d="M26.103,203.252L28.207,75.503L28.207,75.503C26.92,74.377 26.22,73.168 26.22,71.91C26.22,65.847 42.477,60.924 62.5,60.924C82.523,60.924 98.78,65.847 98.78,71.91C98.78,73.168 98.08,74.377 96.793,75.503L96.793,75.503L98.897,203.252C89.918,201.491 76.933,200.384 62.5,200.384C48.067,200.384 35.082,201.491 26.103,203.252Z" style="fill:rgb(33,32,37);"/>
                    </g>
                    <g id="Fenster-ori" serif:id="Fenster ori">
                        <g transform="matrix(1.54374,0,0,2.20644,-15.1871,-102.738)">
                            <path d="M66.848,81.633C66.848,80.057 65.018,78.777 62.765,78.777C60.512,78.777 58.683,80.057 58.683,81.633L58.683,92.912L66.848,92.912L66.848,81.633Z" style="fill:rgb(248,239,221);"/>
                        </g>
                        <g transform="matrix(1.54374,0,0,2.20644,-15.1871,-11.1223)">
                            <path d="M66.848,81.633C66.848,80.057 65.018,78.777 62.765,78.777C60.512,78.777 58.683,80.057 58.683,81.633L58.683,92.912L66.848,92.912L66.848,81.633Z" style="fill:rgb(248,239,221);"/>
                        </g>
                        <g transform="matrix(1.54374,0,0,2.20644,-15.1871,80.4935)">
                            <path d="M66.848,81.633C66.848,80.057 65.018,78.777 62.765,78.777C60.512,78.777 58.683,80.057 58.683,81.633L58.683,92.912L66.848,92.912L66.848,81.633Z" style="fill:rgb(248,239,221);"/>
                        </g>
                    </g>
                    <g transform="matrix(2.24484,0,0,2.24484,-58.596,-109.741)">
                        <path d="M27.236,60.529C30.899,55.635 45.359,51.977 62.619,51.977C79.526,51.977 93.747,55.487 97.764,60.231L97.764,67.268C93.747,62.525 79.526,59.014 62.619,59.014C45.359,59.014 30.899,62.673 27.236,67.566L27.236,60.529Z" style="fill:rgb(33,32,37);"/>
                    </g>
                    <g transform="matrix(2.24484,0,0,2.24484,-58.596,-107.187)">
                        <path d="M97.764,54.095L97.764,61.577L92.149,61.577L92.149,50.448C94.712,51.533 96.638,52.766 97.764,54.095Z" style="fill:rgb(33,32,37);"/>
                    </g>
                    <g transform="matrix(2.24484,0,0,2.24484,-58.596,-107.187)">
                        <path d="M84.035,47.961C86.079,48.415 87.961,48.932 89.649,49.503L89.649,57.053L84.035,57.053L84.035,47.961Z" style="fill:rgb(33,32,37);"/>
                    </g>
                    <g transform="matrix(2.24484,0,0,2.24484,-58.596,-107.187)">
                        <path d="M75.921,46.604C77.882,46.839 79.76,47.123 81.535,47.453L81.535,57.053L75.921,57.053L75.921,46.604Z" style="fill:rgb(33,32,37);"/>
                    </g>
                    <g transform="matrix(2.24484,0,0,2.24484,-58.596,-107.187)">
                        <path d="M67.807,45.953C69.73,46.036 71.605,46.166 73.421,46.337L73.421,57.053L67.807,57.053L67.807,45.953Z" style="fill:rgb(33,32,37);"/>
                    </g>
                    <g transform="matrix(2.24484,0,0,2.24484,-58.596,-107.187)">
                        <path d="M59.693,45.876C60.657,45.853 61.633,45.841 62.619,45.841C63.523,45.841 64.42,45.851 65.307,45.871L65.307,52.445L59.693,52.445L59.693,45.876Z" style="fill:rgb(33,32,37);"/>
                    </g>
                    <g transform="matrix(2.24484,0,0,2.24484,-58.596,-107.187)">
                        <path d="M57.193,45.963L57.193,57.053L51.579,57.053L51.579,46.36C53.393,46.184 55.268,46.051 57.193,45.963Z" style="fill:rgb(33,32,37);"/>
                    </g>
                    <g transform="matrix(2.24484,0,0,2.24484,-58.596,-107.187)">
                        <path d="M49.079,46.633L49.079,57.053L43.465,57.053L43.465,47.498C45.24,47.162 47.117,46.872 49.079,46.633Z" style="fill:rgb(33,32,37);"/>
                    </g>
                    <g transform="matrix(2.24484,0,0,2.24484,-58.596,-107.187)">
                        <path d="M40.965,48.014L40.965,57.053L35.351,57.053L35.351,49.584C37.034,49.004 38.916,48.477 40.965,48.014Z" style="fill:rgb(33,32,37);"/>
                    </g>
                    <g transform="matrix(2.24484,0,0,2.24484,-58.596,-107.187)">
                        <path d="M32.851,50.55L32.851,61.577L27.236,61.577L27.236,54.393C28.285,52.991 30.22,51.691 32.851,50.55Z" style="fill:rgb(33,32,37);"/>
                    </g>
                </g>
            </g>
        </g>
    </g>
</svg>
